<?xml version="1.0" standalone="no"?>
<!DOCTYPE svg PUBLIC "-//W3C//DTD SVG 20010904//EN"
 "http://www.w3.org/TR/2001/REC-SVG-20010904/DTD/svg10.dtd">
<svg version="1.0" xmlns="http://www.w3.org/2000/svg"
 width="160.000000pt" height="160.000000pt" viewBox="0 0 160.000000 160.000000"
 preserveAspectRatio="xMidYMid meet">
<metadata>
Created by potrace 1.11, written by Peter Selinger 2001-2013
</metadata>
<g transform="translate(0.000000,160.000000) scale(0.100000,-0.100000)"
fill="#000000" stroke="none">
<path d="M769 1570 c-1 -14 -1 -52 0 -85 l0 -60 -19 40 c-10 22 -25 55 -32 72
-10 26 -17 32 -33 27 -11 -4 -24 -10 -29 -14 -4 -5 10 -54 33 -111 23 -57 41
-105 41 -109 0 -3 -70 -5 -156 -5 -85 0 -157 -2 -159 -5 -1 -3 -6 -34 -9 -70
-4 -36 -9 -87 -12 -115 -9 -91 -15 -149 -19 -198 -7 -84 -15 -138 -20 -147 -3
-5 -80 -9 -171 -9 -92 0 -169 -3 -172 -5 -2 -3 6 -18 19 -34 13 -16 35 -43 49
-62 14 -18 30 -38 35 -44 6 -6 30 -38 55 -71 48 -63 69 -90 85 -109 34 -38 61
-84 59 -101 -3 -46 -15 -162 -19 -190 -2 -16 -7 -60 -10 -97 l-5 -66 519 -1
520 0 -4 57 c-3 31 -7 75 -9 97 -3 22 -8 74 -12 115 -3 41 -9 79 -11 83 -7 11
14 41 170 240 76 99 137 181 134 183 -2 2 -81 4 -175 5 -155 0 -172 1 -173 17
0 9 -2 24 -4 33 -1 9 -6 49 -9 90 -10 113 -15 160 -22 214 -3 28 -8 77 -10
109 -2 32 -8 64 -13 70 -7 8 -59 11 -160 11 -83 0 -151 2 -151 5 0 3 18 52 40
108 38 95 39 104 24 119 -24 25 -44 6 -71 -68 -14 -35 -26 -66 -28 -68 -2 -2
-4 33 -3 78 0 45 -2 85 -6 88 -3 4 -17 7 -31 8 -20 0 -25 -4 -26 -25z"/>
</g>
</svg>
