<?xml version="1.0" standalone="no"?>
<!DOCTYPE svg PUBLIC "-//W3C//DTD SVG 20010904//EN"
 "http://www.w3.org/TR/2001/REC-SVG-20010904/DTD/svg10.dtd">
<svg version="1.0" xmlns="http://www.w3.org/2000/svg"
 width="176.000000pt" height="176.000000pt" viewBox="0 0 176.000000 176.000000"
 preserveAspectRatio="xMidYMid meet">

<g transform="translate(0.000000,176.000000) scale(0.100000,-0.100000)"
fill="#000000" stroke="none">
<path d="M0 880 l0 -880 880 0 880 0 0 880 0 880 -880 0 -880 0 0 -880z m644
280 c119 -71 220 -131 225 -134 4 -3 108 55 231 129 134 81 234 135 249 135
32 0 124 -52 145 -82 9 -12 16 -34 16 -47 0 -15 -49 -100 -120 -208 -66 -102
-120 -187 -120 -190 0 -3 19 -22 41 -42 34 -30 40 -41 35 -59 -9 -28 -242
-222 -266 -222 -39 0 -42 7 -151 329 l-52 154 -79 -228 c-43 -125 -83 -234
-89 -242 -6 -7 -21 -13 -33 -13 -28 0 -262 192 -269 222 -5 16 3 30 29 55 20
18 40 33 45 33 5 0 9 4 9 9 0 5 -57 94 -126 196 -111 165 -125 191 -120 218 3
16 11 36 17 43 20 25 114 74 140 74 16 0 111 -50 243 -130z"/>
<path d="M357 1207 l-37 -23 157 -46 c87 -26 158 -46 160 -45 4 4 -222 137
-233 137 -5 0 -26 -10 -47 -23z"/>
<path d="M433 967 c56 -83 105 -156 109 -162 4 -5 61 27 138 79 71 49 129 90
128 91 -2 2 -97 30 -213 64 -116 34 -222 66 -237 71 -24 8 -16 -9 75 -143z"/>
<path d="M1200 1051 c-124 -37 -232 -70 -240 -72 -9 -4 37 -40 122 -97 l136
-91 98 151 c109 166 116 178 112 177 -2 0 -104 -31 -228 -68z"/>
<path d="M648 791 l-66 -47 18 -24 c10 -14 20 -23 23 -20 9 11 84 116 91 128
10 16 10 17 -66 -37z"/>
<path d="M727 743 c-96 -142 -122 -146 -193 -35 -3 5 -53 -31 -54 -38 0 -7
191 -163 194 -158 5 5 105 298 102 298 -1 0 -23 -30 -49 -67z"/>
</g>
</svg>
