<?xml version="1.0" encoding="UTF-8" standalone="no"?>
<!-- Generator: Adobe Illustrator 15.1.0, SVG Export Plug-In . SVG Version: 6.00 Build 0)  -->

<svg
   xmlns:dc="http://purl.org/dc/elements/1.1/"
   xmlns:cc="http://creativecommons.org/ns#"
   xmlns:rdf="http://www.w3.org/1999/02/22-rdf-syntax-ns#"
   xmlns:svg="http://www.w3.org/2000/svg"
   xmlns="http://www.w3.org/2000/svg"
   xmlns:sodipodi="http://sodipodi.sourceforge.net/DTD/sodipodi-0.dtd"
   xmlns:inkscape="http://www.inkscape.org/namespaces/inkscape"
   version="1.1"
   id="Layer_1"
   x="0px"
   y="0px"
   width="69.521004"
   height="69.517998"
   viewBox="0 0 69.521004 69.517998"
   enable-background="new 0 0 84.5 80"
   xml:space="preserve"
   inkscape:version="0.48.4 r9939"
   sodipodi:docname="me.svg"><metadata
   id="metadata3013"><rdf:RDF><cc:Work
       rdf:about=""><dc:format>image/svg+xml</dc:format><dc:type
         rdf:resource="http://purl.org/dc/dcmitype/StillImage" /></cc:Work></rdf:RDF></metadata><defs
   id="defs3011" /><sodipodi:namedview
   pagecolor="#ffffff"
   bordercolor="#666666"
   borderopacity="1"
   objecttolerance="10"
   gridtolerance="10"
   guidetolerance="10"
   inkscape:pageopacity="0"
   inkscape:pageshadow="2"
   inkscape:window-width="640"
   inkscape:window-height="480"
   id="namedview3009"
   showgrid="false"
   fit-margin-top="0"
   fit-margin-left="0"
   fit-margin-right="0"
   fit-margin-bottom="0"
   inkscape:zoom="2.95"
   inkscape:cx="33.32"
   inkscape:cy="35.748"
   inkscape:window-x="0"
   inkscape:window-y="0"
   inkscape:window-maximized="0"
   inkscape:current-layer="Layer_1" />
<path
   d="m 8.324,0 h 52.875 c 4.578,0 8.322,3.744 8.322,8.319 v 52.878 c 0,4.577 -3.744,8.321 -8.322,8.321 H 8.324 C 3.744,69.518 0,65.774 0,61.197 V 8.321 C 0,3.746 3.744,0 8.324,0"
   id="path3001"
   inkscape:connector-curvature="0"
   style="fill:#269446" />
<path
   d="M 66.658,9.455 C 66.658,7.635 65.918,5.99 64.73,4.799 63.535,3.607 61.886,2.865 60.066,2.865 V 2.862 h -0.002 -0.006 v 0.003 c -1.818,0 -3.465,0.738 -4.656,1.928 -1.191,1.194 -1.934,2.844 -1.934,4.664 h -0.002 v 0.002 0.004 h 0.002 c 0,1.817 0.74,3.467 1.932,4.656 1.193,1.195 2.84,1.934 4.664,1.934 v 0.004 h 0.004 v -0.004 c 1.818,0 3.465,-0.739 4.658,-1.928 1.193,-1.193 1.932,-2.845 1.932,-4.664 h 0.004 V 9.459 9.455 H 66.658 z M 65.34,9.46 c 0,1.456 -0.592,2.773 -1.547,3.727 -0.953,0.955 -2.271,1.545 -3.725,1.547 V 14.73 h -0.004 v 0.004 c -1.455,0 -2.777,-0.592 -3.729,-1.545 -0.957,-0.956 -1.547,-2.273 -1.547,-3.727 h 0.004 V 9.458 9.456 h -0.004 c 0,-1.454 0.59,-2.772 1.543,-3.728 0.957,-0.955 2.279,-1.547 3.727,-1.547 v 0.002 h 0.006 0.002 V 4.181 c 1.451,0 2.775,0.592 3.725,1.545 C 64.748,6.683 65.338,8 65.34,9.454 H 65.338 V 9.458 9.46 h 0.002 z"
   id="path3003"
   inkscape:connector-curvature="0"
   style="fill:#fffbf1" />
<path
   d="M 62.279,11.27 C 61.99,10.809 61.763,10.487 61.593,10.305 61.423,10.123 61.21,9.957 60.952,9.805 61.472,9.731 61.866,9.547 62.128,9.256 62.39,8.967 62.524,8.598 62.524,8.151 62.524,7.799 62.432,7.486 62.26,7.213 62.086,6.94 61.858,6.75 61.571,6.643 61.282,6.537 60.821,6.483 60.182,6.483 h -2.529 v 5.949 h 1.205 V 9.949 h 0.24 c 0.277,0 0.477,0.024 0.605,0.067 0.127,0.045 0.25,0.127 0.363,0.246 0.113,0.123 0.322,0.41 0.631,0.875 l 0.869,1.295 h 1.438 L 62.279,11.27 z M 59.748,8.998 H 58.859 V 7.493 h 0.936 c 0.488,0 0.781,0.006 0.879,0.018 0.195,0.035 0.344,0.111 0.449,0.234 0.109,0.123 0.162,0.284 0.162,0.485 0,0.178 -0.041,0.326 -0.119,0.447 -0.082,0.117 -0.197,0.203 -0.34,0.25 -0.145,0.047 -0.504,0.071 -1.078,0.071 z"
   id="path3005"
   inkscape:connector-curvature="0"
   style="fill:#ffffff" />
<path
   d="m 55.259,26.018 c -1.016,-2.928 -2.508,-5.432 -4.449,-7.533 -1.953,-2.086 -4.359,-3.692 -7.227,-4.811 -2.855,-1.115 -6.027,-1.68 -9.504,-1.68 -4.531,0 -8.415,0.957 -11.643,2.869 -3.246,1.911 -5.666,4.375 -7.287,7.399 -1.607,3.027 -2.418,6.111 -2.418,9.256 0,2.91 0.84,4.793 2.504,5.664 1.668,0.855 4.026,1.29 7.054,1.29 h 22.658 c -0.031,2.635 -0.57,4.953 -1.596,6.965 -1.029,2.017 -2.404,3.521 -4.111,4.535 -1.711,1.031 -3.609,1.535 -5.665,1.535 -1.392,0 -2.654,-0.158 -3.797,-0.492 -1.144,-0.317 -2.258,-0.826 -3.332,-1.52 -1.086,-0.697 -2.071,-1.437 -2.97,-2.23 -0.911,-0.797 -2.084,-1.871 -3.534,-3.229 -0.595,-0.509 -1.433,-0.771 -2.533,-0.771 -1.187,0 -2.158,0.334 -2.896,0.986 -0.725,0.649 -1.102,1.563 -1.102,2.754 0,1.039 0.422,2.272 1.231,3.676 0.822,1.394 2.058,2.738 3.722,4.027 1.651,1.291 3.723,2.358 6.229,3.201 2.506,0.854 5.39,1.276 8.631,1.276 7.448,0 13.243,-2.119 17.372,-6.358 4.127,-4.246 6.199,-10.013 6.199,-17.281 0,-3.417 -0.508,-6.604 -1.536,-9.528 z m -31.316,5.877 c 0.272,-3.953 1.344,-6.922 3.199,-8.877 1.857,-1.971 4.289,-2.955 7.316,-2.955 2.897,0 5.254,1 7.114,2.984 1.852,2 2.979,4.953 3.375,8.848 H 23.943 z"
   id="path3007"
   inkscape:connector-curvature="0"
   style="fill:#ffffff" />
</svg>