<svg width="600" height="600" xmlns="http://www.w3.org/2000/svg">
 <metadata id="metadata2991">image/svg+xml</metadata>
 <g>
  <title>Layer 1</title>
  <g id="g3216">
   <g fill="#1966cc" id="g5003">
    <path fill="#1966cc" id="path3854" d="m211.617798,217.888107c-0.714325,54.325546 45.609528,99.648178 99.80722,99.648178c54.197693,0 98.573883,-45.317932 98.573883,-99.648178c0,-54.330231 -44.362793,-98.339188 -98.573883,-98.339188c-71.764496,0 -99.285736,58.679153 -99.80722,98.339188zm99.807251,-87.677261c48.311188,0 86.21701,39.24794 86.21701,87.677261c0,48.429306 -37.905823,86.867599 -86.21701,86.867599c-48.311188,0 -87.450409,-38.438293 -87.450409,-86.867599c0,-48.429321 39.139221,-87.677261 87.450409,-87.677261z"/>
    <path fill="#1966cc" d="m187.313385,217.884354c0,70.266525 58.751038,122.742538 124.106659,122.742538c65.355591,0 122.455505,-54.011139 122.455505,-122.742538c0,-68.7314 -57.591522,-123.336319 -122.455505,-123.336319c-64.864044,0 -124.106659,50.081589 -124.106659,123.336319zm124.106659,-112.200897c56.023285,0 110.678467,48.15419 110.678467,112.200897c0,64.474442 -49.561615,110.9655 -110.678467,110.9655c-63.897308,0 -111.272278,-49.057526 -111.272278,-110.9655c0,-64.260574 50.155365,-112.200897 111.272278,-112.200897z" id="path3857"/>
    <path fill="#1966cc" id="path3859" d="m163.276108,217.945572c0,84.766647 69.340866,147.223373 148.182816,147.223373c78.841919,0 147.300842,-64.309021 147.300842,-147.223373c0,-82.914337 -68.56781,-147.887604 -147.300842,-147.887604c-78.733063,0 -148.182816,60.283829 -148.182816,147.887604zm148.182816,-135.67041c71.332306,0 134.847656,58.407333 134.847656,135.67041c0,77.778488 -62.81366,135.435715 -136.542694,135.435715c-73.268097,0 -134.957794,-60.753265 -134.957794,-135.435715c0,-77.520767 62.924988,-135.67041 136.652832,-135.67041l0,0z"/>
   </g>
   <g fill="#318bff" id="g5008">
    <path fill="#318bff" d="m303.743622,146.469284l15.613281,0l0,142.442001l-15.613281,0l0,-142.442001z" id="path3819"/>
    <path fill="#318bff" id="path3821" d="m271.153534,157.660507c6.268311,-4.982208 15.613281,-7.420074 15.613281,-7.420074l0,134.499252c-8.856201,-2.111206 -15.506805,-7.236176 -15.506805,-7.236176l-0.106476,-119.843002z"/>
    <path fill="#318bff" d="m352.138153,157.358047c-6.268311,-4.982208 -15.613281,-7.42009 -15.613281,-7.42009l0,134.499268c8.85498,-2.111206 15.505615,-7.236176 15.505615,-7.236176l0.107666,-119.843002z" id="path3834"/>
    <path fill="#318bff" id="path3836" d="m253.956543,173.954941l0,86.656448c0,0 -14.367126,-14.064651 -14.367126,-43.101364c0,-29.036713 14.367126,-43.555084 14.367126,-43.555084z"/>
    <path fill="#318bff" d="m368.155731,173.350021l0,86.656448c0,0 14.367096,-14.064682 14.367096,-43.101395c0,-29.036713 -14.367096,-43.555054 -14.367096,-43.555054z" id="path3838"/>
   </g>
   <g fill="#318bff" id="g3386">
    <path fill="#318bff" id="path4983" d="m384.572235,71.79895l20.638184,-39.562527l-19.183075,-9.237892l-16.412781,41.817127l14.957672,6.983292z"/>
    <path fill="#318bff" d="m352.416656,59.616611l11.925262,-42.999023l-20.687927,-5.030876l-7.323883,44.321877l16.086548,3.708023z" id="path3039"/>
    <path fill="#318bff" id="path3041" d="m319.113831,54.446888l2.87558,-44.529472l-21.279846,-0.691589l1.898834,44.882866l16.505432,0.338196z"/>
    <path fill="#318bff" d="m284.641632,56.330189l-6.51886,-44.14357l-20.952576,3.782593l11.261932,43.488571l16.209503,-3.127594z" id="path3043"/>
    <path fill="#318bff" d="m251.40979,65.363312l-15.60202,-41.806034l-19.698059,8.078423l20.102203,40.174145l15.197876,-6.446533z" id="path3045"/>
    <path fill="#318bff" id="path3047" d="m220.84259,81.115173l-23.982361,-37.629589l-17.57901,12.011871l28.044739,35.094311l13.516632,-9.476593z"/>
    <path fill="#318bff" d="m194.722168,102.41037l-31.175568,-31.926147l-14.748856,15.354095l34.632034,28.613892l11.292389,-12.04184z" id="path3049"/>
    <path fill="#318bff" id="path3051" d="m173.060516,129.293472l-37.171707,-24.685196l-11.204742,18.10434l39.858521,20.721054l8.517929,-14.140198z"/>
    <path fill="#318bff" d="m157.781631,159.415726l-41.444153,-16.53862l-7.254578,20.01619l43.260345,12.109253l5.438385,-15.586823z" id="path3053"/>
    <path fill="#318bff" id="path3055" d="m148.90657,192.636703l-43.983185,-7.5242l-2.91687,21.090332l44.834686,2.812622l2.065369,-16.378754z"/>
    <path fill="#318bff" d="m147.124939,226.292099l-44.592346,1.633118l1.459763,21.24057l44.462021,-6.418976l-1.329437,-16.454712z" id="path3057"/>
    <path fill="#318bff" id="path3059" d="m152.478027,260.397888l-43.260193,10.940063l5.878128,20.464294l42.129837,-15.593231l-4.747772,-15.811127z"/>
    <path fill="#318bff" id="path3061" d="m164.819901,292.54715l-40.018387,19.741638l10.025665,18.783691l37.93985,-24.055237l-7.947128,-14.470093z"/>
    <path fill="#318bff" d="m183.575562,321.367828l-35.016159,27.659119l13.725082,16.276886l32.083862,-31.444153l-10.792786,-12.491852z" id="path3063"/>
    <path fill="#318bff" id="path3065" d="m207.399109,345.206543l-28.616028,34.237366l16.763977,13.124481l24.971985,-37.342499l-13.119934,-10.019348z"/>
    <path fill="#318bff" d="m236.330719,364.042999l-20.806244,39.47464l19.142426,9.319214l16.592133,-41.746033l-14.928314,-7.047821z" id="path3067"/>
    <path fill="#318bff" id="path3069" d="m268.734985,376.44342l-12.029694,42.971008l20.675964,5.080017l7.431366,-44.30426l-16.077637,-3.746765z"/>
    <path fill="#318bff" d="m302.712433,381.727905l-2.795288,44.535645l21.280273,0.652588l-1.979797,-44.878601l-16.505188,-0.309631z" id="path3071"/>
    <path fill="#318bff" id="path3073" d="m336.365662,379.914154l6.375732,44.164032l20.963379,-3.714233l-11.119629,-43.524841l-16.219482,3.075043z"/>
    <path fill="#318bff" d="m369.706848,370.957886l15.487854,41.847473l19.720215,-8.024841l-19.99353,-40.228333l-15.214539,6.405701z" id="path3075"/>
    <path fill="#318bff" d="m400.359283,355.261383l23.893158,37.685822l17.606628,-11.969604l-27.959717,-35.161316l-13.54007,9.445099z" id="path3077"/>
    <path fill="#318bff" id="path3079" d="m427.017456,333.539948l31.232117,31.870911l14.722107,-15.381592l-34.683472,-28.550629l-11.270752,12.06131z"/>
    <path fill="#318bff" d="m448.18103,307.312439l37.092834,24.805573l11.263245,-18.067383l-39.79187,-20.850494l-8.564209,14.112305z" id="path3081"/>
    <path fill="#318bff" id="path3083" d="m463.828552,276.538849l41.465454,16.483002l7.227478,-20.026917l-43.276123,-12.050323l-5.416809,15.594238z"/>
    <path fill="#318bff" d="m472.69574,243.062607l44.004517,7.398346l2.857117,-21.098175l-44.842529,-2.684998l-2.019104,16.384827z" id="path3089"/>
    <path fill="#318bff" id="path3091" d="m474.335388,208.577438l44.577881,-1.984924l-1.627197,-21.229523l-44.410217,6.77124l1.459534,16.443207z"/>
    <path fill="#318bff" id="path3093" d="m468.735962,174.59819l43.178467,-11.259308l-6.027954,-20.419052l-42.013794,15.903458l4.863281,15.774902z"/>
    <path fill="#318bff" d="m456.182251,142.585815l39.877869,-20.023941l-10.158386,-18.711441l-37.769043,24.322693l8.049561,14.412689z" id="path3095"/>
    <path fill="#318bff" id="path3097" d="m437.659546,114.430344l34.937805,-27.759216l-13.771973,-16.236954l-31.993408,31.535202l10.827576,12.460968z"/>
    <path fill="#318bff" d="m413.124725,90.142471l28.345184,-34.463024l-16.868591,-12.991547l-24.675995,37.538647l13.199402,9.915924z" id="path3099"/>
   </g>
  </g>
  <g fill="#1966cc" id="text3418">
   <g fill="#1966cc" id="g3271">
    <path fill="#1966cc" d="m163.065231,486.112549l0,98.258911l19.320999,0l0,-29.151001l5.897003,0c5.020996,0 9.878998,-0.845886 14.572998,-2.53894c4.695007,-1.692993 8.89798,-4.093994 12.609009,-7.203979c3.711975,-3.109985 6.605988,-6.794983 8.681,-11.052979c2.075989,-4.257996 3.113983,-8.843994 3.113983,-13.758057c0,-4.911011 -1.037994,-9.495972 -3.113983,-13.753967c-2.075012,-4.257996 -4.969025,-7.942993 -8.681,-11.054993c-3.711029,-3.112 -7.914001,-5.513977 -12.609009,-7.205994c-4.694,-1.692993 -9.552002,-2.539001 -14.572998,-2.539001l-25.218002,0zm25.218002,19.325989c5.130981,0 9.634003,1.392029 13.509003,4.174988c3.875,2.783997 5.811981,6.468018 5.811981,11.052979c0,4.588013 -1.936981,8.274048 -5.811981,11.057007c-3.875,2.784058 -8.378021,4.175964 -13.509003,4.175964l-5.897003,0l0,-30.460938l5.897003,0z" id="path3261"/>
    <path fill="#1966cc" d="m284.405273,526.07373l-3.603333,-19.490906c-2.622162,0.000061 -5.270111,0.546448 -7.943817,1.639221c-2.673828,1.092896 -5.157654,2.403137 -7.451569,3.930664c-2.293976,1.52771 -4.095642,2.837097 -5.404999,3.928223c-1.309418,1.091187 -2.237335,1.85498 -2.783722,2.291382c-0.109985,-0.216492 -0.49231,-0.788757 -1.146973,-1.716675c-0.654724,-0.927856 -1.527649,-2.047302 -2.618774,-3.358459c-1.091187,-1.310974 -2.128204,-2.512085 -3.111084,-3.603333c-0.98288,-1.091064 -1.857483,-1.909851 -2.623779,-2.45636l-15.717743,9.335632c4.258026,3.275208 7.396576,6.905212 9.415649,10.890015c2.019043,3.984863 3.028595,8.65271 3.028595,14.00354l0,42.905212l18.671387,0l0,-44.379517c0.436432,-0.546448 1.255219,-1.474304 2.45636,-2.783752c1.20108,-1.309387 2.783691,-2.837769 4.747803,-4.585327c1.96405,-1.747559 4.202179,-3.27594 6.714417,-4.585449c2.512115,-1.309326 4.969299,-1.96405 7.371582,-1.964111z" id="path3263"/>
    <path fill="#1966cc" d="m312.536896,557.024536c0.979523,0.000061 1.90744,0.000061 2.783722,0c19.650879,0.000061 41.477875,-10.623352 40.313049,-27.022583c-0.669952,-9.431763 -3.522247,-12.582886 -8.463501,-16.827515c-5.240967,-4.094727 -13.914948,-6.3573 -19.937286,-6.401672c-4.914307,-0.036194 -9.950958,1.623718 -14.153961,3.752625c-4.203094,2.129089 -7.907959,4.580078 -10.964874,8.40155c-3.056946,3.821594 -5.628906,7.936523 -7.266479,12.79425c-1.637573,4.857788 -2.45636,9.852173 -2.45636,14.983032c0,5.131104 0.818787,10.126221 2.45636,14.985596c1.637573,4.859497 3.957336,9.172424 6.95929,12.939087c3.001923,3.766541 6.604431,6.741882 10.807526,8.925903c4.203003,2.18396 8.816711,3.27594 13.841095,3.27594c3.928131,0 7.584778,-0.655518 10.96994,-1.966614c3.38504,-1.311035 6.223724,-2.839478 8.516052,-4.585327c2.292206,-1.74585 4.03891,-3.274292 5.240082,-4.585449c1.20105,-1.311035 2.019836,-2.239746 2.45636,-2.786133l-10.480164,-10.480225c-0.872986,1.092834 -2.701294,2.430542 -5.484955,4.013184c-2.783752,1.582642 -6.522858,2.373901 -11.217316,2.373901c-2.402283,0 -4.449646,-0.463989 -6.142181,-1.391907c-1.692566,-0.927917 -3.084442,-2.074036 -4.175568,-3.438416c-1.091187,-1.364258 -1.85498,-2.56543 -2.291443,-3.603333c-0.436462,-1.037781 -0.872955,-2.156433 -1.309387,-3.355896zm13.693848,-34.047791c3.275116,0.000061 5.744934,0.028992 8.907562,1.959045c1.96405,1.256226 3.836395,3.313293 3.705963,5.590576c-0.30661,5.352783 -8.784912,8.849976 -15.036774,10.045105c-4.339661,0.829529 -5.942535,1.155945 -12.929291,1.155945c0.109924,-0.762939 0.205841,-1.166748 0.587341,-2.859375c0.38147,-1.692444 1.315857,-4.0802 2.353729,-6.264221c1.037842,-2.183899 2.566315,-4.122192 4.585388,-5.814819c2.019043,-1.692444 4.877411,-3.812195 7.82608,-3.812256z" id="path3265"/>
    <path fill="#1966cc" d="m366.056213,509.041565l0,18.34198l28.657013,0l-30.29599,56.987915l59.606995,0l0,-18.340942l-30.29599,0l30.29599,-56.988953l-57.968018,0z" id="path3267"/>
    <path fill="#1966cc" d="m449.272217,474.157532c-3.167969,0 -5.843994,1.092041 -8.026001,3.276001c-2.182007,2.184021 -3.27301,4.859009 -3.27301,8.023987c0,3.165039 1.091003,5.840027 3.27301,8.024048c2.182007,2.18396 4.858032,3.276001 8.026001,3.276001c3.166016,0 5.840027,-1.092041 8.023987,-3.276001c2.184021,-2.184021 3.276001,-4.859009 3.276001,-8.024048c0,-3.164978 -1.09198,-5.839966 -3.276001,-8.023987c-2.18396,-2.18396 -4.857971,-3.276001 -8.023987,-3.276001zm9.496033,34.884033l-18.996033,0l0,75.329895l18.996033,0l0,-75.329895z" id="path3269"/>
   </g>
  </g>
 </g>
</svg>