<?xml version="1.0" encoding="utf-8"?>
<!-- Generator: Adobe Illustrator 15.1.0, SVG Export Plug-In . SVG Version: 6.00 Build 0)  -->
<!DOCTYPE svg PUBLIC "-//W3C//DTD SVG 1.1//EN" "http://www.w3.org/Graphics/SVG/1.1/DTD/svg11.dtd">
<svg version="1.1" id="Layer_1" xmlns="http://www.w3.org/2000/svg" xmlns:xlink="http://www.w3.org/1999/xlink" x="0px" y="0px"
	 width="566.93px" height="566.93px" viewBox="0 0 566.93 566.93" enable-background="new 0 0 566.93 566.93" xml:space="preserve">
<polygon fill="#4E443C" points="-0.316,293.735 137.545,293.735 122.751,451.616 "/>
<path fill="#4E443C" d="M275.765,575.045"/>
<path fill="#4E443C" d="M464.669,568.049H95.746l48.3-467.4h272.321L464.669,568.049z M120.246,545.949h319.921l-43.733-423.202
	H163.98L120.246,545.949z"/>
<path fill="#4E443C" stroke="#000000" stroke-width="20" stroke-miterlimit="10" d="M222.829,558.457"/>
<path fill="#4E443C" stroke="#000000" stroke-width="20" stroke-miterlimit="10" d="M241.016,457.849"/>
<g>
	<path fill="#4E443C" stroke="#000000" stroke-width="20" stroke-miterlimit="10" d="M355.447,557"/>
	<path fill="#4E443C" stroke="#000000" stroke-width="20" stroke-miterlimit="10" d="M337.255,456.392"/>
	<path fill="#4E443C" stroke="#000000" stroke-width="20" stroke-miterlimit="10" d="M364.743,557"/>
	<path fill="#4E443C" stroke="#000000" stroke-width="20" stroke-miterlimit="10" d="M382.931,456.392"/>
</g>
<circle fill="#4E443C" cx="349.95" cy="244.888" r="22.642"/>
<path fill="#4E443C" stroke="#000000" stroke-width="20" stroke-miterlimit="10" d="M290.119,111.565"/>
<path fill="#4E443C" stroke="#000000" stroke-width="20" stroke-miterlimit="10" d="M318.477,111.167"/>
<path fill="#4E443C" stroke="#000000" stroke-width="20" stroke-miterlimit="10" d="M348.812,111.167"/>
<path fill="#4E443C" stroke="#000000" stroke-width="20" stroke-miterlimit="10" d="M381.144,111.025"/>
<rect x="127.998" y="498.919" transform="matrix(-0.3605 -0.9328 0.9328 -0.3605 -233.0386 860.1688)" fill="#4E443C" width="100.694" height="22.101"/>
<rect x="188.114" y="454.245" fill="#4E443C" width="22.1" height="102.555"/>
<rect x="289.986" y="498.925" transform="matrix(-0.3604 -0.9328 0.9328 -0.3604 -12.714 1011.233)" fill="#4E443C" width="100.689" height="22.1"/>
<rect x="350.121" y="454.294" fill="#4E443C" width="22.101" height="102.555"/>
<rect x="205.925" y="53.69" transform="matrix(-0.3604 -0.9328 0.9328 -0.3604 288.2434 327.1183)" fill="#4E443C" width="100.688" height="22.099"/>
<path fill="#4E443C" d="M288.243,575.045"/>
<path fill="#4E443C" d="M147.643,100.649h272.319l48.302,467.4H99.34L147.643,100.649z M400.031,122.747H167.576l-43.734,423.202
	h319.921L400.031,122.747z"/>
<g>
	<path fill="#4E443C" d="M196.444,324.306l85.523-63.487l85.52,63.487l-85.52,63.488L196.444,324.306z M281.969,288.342
		l-48.449,35.964l48.449,35.965l48.447-35.965L281.969,288.342z"/>
	<rect x="214.983" y="313.256" fill="#4E443C" width="133.969" height="22.099"/>
</g>
<path fill="#4E443C" stroke="#000000" stroke-width="20" stroke-miterlimit="10" d="M341.181,558.457"/>
<path fill="#4E443C" stroke="#000000" stroke-width="20" stroke-miterlimit="10" d="M322.992,457.849"/>
<g>
	<path fill="#4E443C" stroke="#000000" stroke-width="20" stroke-miterlimit="10" d="M208.564,557"/>
	<path fill="#4E443C" stroke="#000000" stroke-width="20" stroke-miterlimit="10" d="M226.756,456.392"/>
	<path fill="#4E443C" stroke="#000000" stroke-width="20" stroke-miterlimit="10" d="M199.267,557"/>
	<path fill="#4E443C" stroke="#000000" stroke-width="20" stroke-miterlimit="10" d="M181.08,456.392"/>
</g>
<circle fill="#4E443C" cx="214.059" cy="244.888" r="22.642"/>
<path fill="#4E443C" stroke="#000000" stroke-width="20" stroke-miterlimit="10" d="M273.892,111.565"/>
<path fill="#4E443C" stroke="#000000" stroke-width="20" stroke-miterlimit="10" d="M245.533,111.167"/>
<path fill="#4E443C" stroke="#000000" stroke-width="20" stroke-miterlimit="10" d="M215.198,111.167"/>
<path fill="#4E443C" stroke="#000000" stroke-width="20" stroke-miterlimit="10" d="M182.866,111.025"/>
<rect x="335.286" y="498.877" transform="matrix(0.3605 -0.9328 0.9328 0.3605 -229.0287 685.7967)" fill="#4E443C" width="100.694" height="22.1"/>
<rect x="353.796" y="454.245" fill="#4E443C" width="22.101" height="102.555"/>
<rect x="173.314" y="498.964" transform="matrix(0.3604 -0.9328 0.9328 0.3604 -332.6887 534.823)" fill="#4E443C" width="100.688" height="22.1"/>
<rect x="191.788" y="454.294" fill="#4E443C" width="22.099" height="102.555"/>
<rect x="257.395" y="53.697" transform="matrix(0.3604 -0.9328 0.9328 0.3604 136.4285 328.466)" fill="#4E443C" width="100.689" height="22.097"/>
<rect x="270.956" y="6.358" fill="#4E443C" width="22.099" height="102.554"/>
<polygon fill="#4E443C" points="441.175,451.616 425.513,293.735 564.325,293.735 "/>
</svg>
