<?xml version="1.0" encoding="utf-8"?>
<!-- Generator: Adobe Illustrator 15.1.0, SVG Export Plug-In . SVG Version: 6.00 Build 0)  -->
<!DOCTYPE svg PUBLIC "-//W3C//DTD SVG 1.1//EN" "http://www.w3.org/Graphics/SVG/1.1/DTD/svg11.dtd">
<svg version="1.1" id="Layer_1" xmlns="http://www.w3.org/2000/svg" xmlns:xlink="http://www.w3.org/1999/xlink" x="0px" y="0px"
	 width="566.93px" height="566.93px" viewBox="0 0 566.93 566.93" enable-background="new 0 0 566.93 566.93" xml:space="preserve">
<path fill="#4E443C" d="M-0.316,293.735l123.067,157.882l14.794-157.882H-0.316z M114.869,384.253l-43.472-55.77h48.698
	L114.869,384.253z"/>
<path fill="#4E443C" d="M275.765,575.045"/>
<path fill="#4E443C" stroke="#000000" stroke-width="20" stroke-miterlimit="10" d="M222.829,558.457"/>
<path fill="#4E443C" stroke="#000000" stroke-width="20" stroke-miterlimit="10" d="M241.016,457.849"/>
<g>
	<path fill="#4E443C" stroke="#000000" stroke-width="20" stroke-miterlimit="10" d="M355.447,557"/>
	<path fill="#4E443C" stroke="#000000" stroke-width="20" stroke-miterlimit="10" d="M337.255,456.392"/>
	<path fill="#4E443C" stroke="#000000" stroke-width="20" stroke-miterlimit="10" d="M364.743,557"/>
	<path fill="#4E443C" stroke="#000000" stroke-width="20" stroke-miterlimit="10" d="M382.931,456.392"/>
</g>
<path fill="#4E443C" stroke="#000000" stroke-width="20" stroke-miterlimit="10" d="M290.119,111.565"/>
<path fill="#4E443C" stroke="#000000" stroke-width="20" stroke-miterlimit="10" d="M318.477,111.167"/>
<path fill="#4E443C" stroke="#000000" stroke-width="20" stroke-miterlimit="10" d="M348.812,111.167"/>
<path fill="#4E443C" stroke="#000000" stroke-width="20" stroke-miterlimit="10" d="M381.144,111.025"/>
<path fill="#4E443C" d="M288.243,575.045"/>
<path fill="#4E443C" stroke="#000000" stroke-width="20" stroke-miterlimit="10" d="M341.181,558.457"/>
<path fill="#4E443C" stroke="#000000" stroke-width="20" stroke-miterlimit="10" d="M322.992,457.849"/>
<g>
	<path fill="#4E443C" stroke="#000000" stroke-width="20" stroke-miterlimit="10" d="M208.564,557"/>
	<path fill="#4E443C" stroke="#000000" stroke-width="20" stroke-miterlimit="10" d="M226.756,456.392"/>
	<path fill="#4E443C" stroke="#000000" stroke-width="20" stroke-miterlimit="10" d="M199.267,557"/>
	<path fill="#4E443C" stroke="#000000" stroke-width="20" stroke-miterlimit="10" d="M181.08,456.392"/>
</g>
<path fill="#4E443C" stroke="#000000" stroke-width="20" stroke-miterlimit="10" d="M273.892,111.565"/>
<path fill="#4E443C" stroke="#000000" stroke-width="20" stroke-miterlimit="10" d="M245.533,111.167"/>
<path fill="#4E443C" stroke="#000000" stroke-width="20" stroke-miterlimit="10" d="M215.198,111.167"/>
<path fill="#4E443C" stroke="#000000" stroke-width="20" stroke-miterlimit="10" d="M182.866,111.025"/>
<path fill="#4E443C" d="M425.513,293.735l15.662,157.882l123.15-157.882H425.513z M443.536,322.081h49.454l-43.874,56.248
	L443.536,322.081z"/>
<polygon fill="#4E443C" points="316.632,326.965 248.299,326.965 282.467,352.299 "/>
<path fill="#4E443C" d="M417.962,101.655H305.323l30.868-79.888l-20.614-7.964l-22.522,58.292V6.358h-22.099v65.734l-22.524-58.295
	l-20.615,7.964l30.87,79.895H145.643l-48.303,467.4h368.924L417.962,101.655z M347.967,230.344
	c12.506,0,22.644,10.138,22.644,22.643c0,12.504-10.138,22.642-22.644,22.642s-22.643-10.138-22.643-22.642
	C325.324,240.482,335.461,230.344,347.967,230.344z M212.076,230.344c12.505,0,22.643,10.138,22.643,22.643
	c0,12.504-10.138,22.642-22.643,22.642c-12.506,0-22.644-10.138-22.644-22.642C189.432,240.482,199.57,230.344,212.076,230.344z
	 M222.376,546.955h-46.697l-27.775-71.866l20.614-7.966l17.612,45.568v-50.348h22.1v0.049h3.674v50.349l17.608-45.571l20.615,7.964
	L222.376,546.955z M228.434,326.17l51.589-38.297l51.587,38.297l-51.587,38.297L228.434,326.17z M384.315,546.955h-46.655
	l-27.765-71.859l20.615-7.965l17.628,45.624v-50.362h3.675v-0.049h22.101v50.22l17.578-45.482l20.615,7.967L384.315,546.955z"/>
</svg>
