<?xml version="1.0" encoding="utf-8"?>
<!-- Generator: Adobe Illustrator 15.1.0, SVG Export Plug-In . SVG Version: 6.00 Build 0)  -->
<!DOCTYPE svg PUBLIC "-//W3C//DTD SVG 1.1//EN" "http://www.w3.org/Graphics/SVG/1.1/DTD/svg11.dtd">
<svg version="1.1" id="Layer_1" xmlns="http://www.w3.org/2000/svg" xmlns:xlink="http://www.w3.org/1999/xlink" x="0px" y="0px"
	 width="566.93px" height="566.93px" viewBox="0 0 566.93 566.93" enable-background="new 0 0 566.93 566.93" xml:space="preserve">
<g>
	<polygon fill="#4E443C" stroke="#000000" stroke-miterlimit="10" points="109.194,434.656 0,294.573 0,567.49 95.466,567.49 	"/>
	<polygon fill="#4E443C" stroke="#000000" stroke-miterlimit="10" points="248.067,335.355 281.632,360.271 315.195,335.355 	"/>
	<polygon fill="#4E443C" stroke="#000000" stroke-miterlimit="10" points="315.194,313.256 281.632,288.342 248.069,313.256 	"/>
	<path fill="#4E443C" stroke="#000000" stroke-miterlimit="10" d="M123.505,545.949h56.562L149.55,466.99l20.615-7.966
		l17.611,45.568v-50.348h22.1v0.049h3.674v50.349l17.609-45.571l20.614,7.964l-30.491,78.914h120.765l-30.506-78.952l20.615-7.965
		l17.628,45.624v-50.362h3.675v-0.049h22.101v50.22l17.578-45.482l20.615,7.967l-30.533,79h56.61l-43.733-423.202H167.24
		L123.505,545.949z M349.614,222.246c12.506,0,22.644,10.138,22.644,22.643c0,12.504-10.138,22.642-22.644,22.642
		s-22.643-10.138-22.643-22.642C326.971,232.384,337.108,222.246,349.614,222.246z M367.151,324.306l-85.521,63.488l-85.523-63.488
		l85.523-63.487L367.151,324.306z M213.722,222.246c12.506,0,22.644,10.138,22.644,22.643c0,12.504-10.138,22.642-22.644,22.642
		s-22.644-10.138-22.644-22.642C191.078,232.384,201.216,222.246,213.722,222.246z"/>
	<polygon fill="#4E443C" stroke="#000000" stroke-miterlimit="10" points="0,-0.559 0,293.735 123.756,293.735 143.709,100.649 
		147.306,100.649 257.961,100.649 227.48,21.76 248.095,13.797 270.618,72.092 270.618,6.358 292.718,6.358 292.718,72.094 
		315.24,13.803 335.855,21.767 305.375,100.649 416.031,100.649 419.625,100.649 439.579,293.735 563.989,293.735 454.133,434.572 
		467.869,567.49 566.93,567.49 566.93,-0.559 	"/>
</g>
</svg>
