<?xml version="1.0" encoding="utf-8"?>
<!-- Generator: Adobe Illustrator 15.1.0, SVG Export Plug-In . SVG Version: 6.00 Build 0)  -->
<!DOCTYPE svg PUBLIC "-//W3C//DTD SVG 1.1//EN" "http://www.w3.org/Graphics/SVG/1.1/DTD/svg11.dtd">
<svg version="1.1" id="Layer_1" xmlns="http://www.w3.org/2000/svg" xmlns:xlink="http://www.w3.org/1999/xlink" x="0px" y="0px"
	 width="566.93px" height="566.93px" viewBox="0 0 566.93 566.93" enable-background="new 0 0 566.93 566.93" xml:space="preserve">
<polygon points="28,276.5 152.764,276.5 139.375,419.39 "/>
<path fill="none" d="M277.853,531.099"/>
<path d="M448.811,524.767H114.936l43.712-423.018h246.449L448.811,524.767z M137.109,504.767h289.528l-39.579-383.018h-210.37
	L137.109,504.767z"/>
<path fill="none" stroke="#000000" stroke-width="20" stroke-miterlimit="10" d="M229.946,516.086"/>
<path fill="none" stroke="#000000" stroke-width="20" stroke-miterlimit="10" d="M246.406,425.031"/>
<g>
	<path fill="none" stroke="#000000" stroke-width="20" stroke-miterlimit="10" d="M349.964,514.767"/>
	<path fill="none" stroke="#000000" stroke-width="20" stroke-miterlimit="10" d="M333.501,423.712"/>
	<path fill="none" stroke="#000000" stroke-width="20" stroke-miterlimit="10" d="M358.378,514.767"/>
	<path fill="none" stroke="#000000" stroke-width="20" stroke-miterlimit="10" d="M374.837,423.712"/>
</g>
<circle cx="344.991" cy="232.292" r="20.492"/>
<path fill="none" stroke="#000000" stroke-width="20" stroke-miterlimit="10" d="M290.843,111.628"/>
<path fill="none" stroke="#000000" stroke-width="20" stroke-miterlimit="10" d="M316.507,111.269"/>
<path fill="none" stroke="#000000" stroke-width="20" stroke-miterlimit="10" d="M343.96,111.269"/>
<path fill="none" stroke="#000000" stroke-width="20" stroke-miterlimit="10" d="M373.22,111.14"/>
<rect x="144.125" y="462.176" transform="matrix(0.3605 0.9328 -0.9328 0.3605 561.7505 125.0413)" width="91.128" height="20"/>
<rect x="198.529" y="421.77" width="20" height="92.816"/>
<rect x="290.741" y="462.22" transform="matrix(0.3604 0.9328 -0.9328 0.3604 655.5673 -11.6849)" width="91.127" height="20.001"/>
<rect x="345.146" y="421.814" width="20" height="92.816"/>
<rect x="214.657" y="59.248" transform="matrix(0.3604 0.9328 -0.9328 0.3604 231.0203 -198.4414)" width="91.127" height="20"/>
<path fill="none" d="M289.147,531.099"/>
<path d="M161.903,101.749h246.448l43.713,423.018H118.189L161.903,101.749z M390.313,121.749h-210.37l-39.579,383.018h289.527
	L390.313,121.749z"/>
<g>
	<path d="M206.068,304.168l77.398-57.458l77.396,57.458l-77.396,57.461L206.068,304.168z M283.467,271.619l-43.846,32.549
		l43.846,32.551l43.844-32.551L283.467,271.619z"/>
	<rect x="222.845" y="294.168" width="121.242" height="20"/>
</g>
<path fill="none" stroke="#000000" stroke-width="20" stroke-miterlimit="10" d="M337.054,516.086"/>
<path fill="none" stroke="#000000" stroke-width="20" stroke-miterlimit="10" d="M320.594,425.031"/>
<g>
	<path fill="none" stroke="#000000" stroke-width="20" stroke-miterlimit="10" d="M217.036,514.767"/>
	<path fill="none" stroke="#000000" stroke-width="20" stroke-miterlimit="10" d="M233.499,423.712"/>
	<path fill="none" stroke="#000000" stroke-width="20" stroke-miterlimit="10" d="M208.622,514.767"/>
	<path fill="none" stroke="#000000" stroke-width="20" stroke-miterlimit="10" d="M192.163,423.712"/>
</g>
<circle cx="222.009" cy="232.292" r="20.492"/>
<path fill="none" stroke="#000000" stroke-width="20" stroke-miterlimit="10" d="M276.157,111.628"/>
<path fill="none" stroke="#000000" stroke-width="20" stroke-miterlimit="10" d="M250.493,111.269"/>
<path fill="none" stroke="#000000" stroke-width="20" stroke-miterlimit="10" d="M223.04,111.269"/>
<path fill="none" stroke="#000000" stroke-width="20" stroke-miterlimit="10" d="M193.78,111.14"/>
<rect x="331.747" y="462.175" transform="matrix(-0.3605 0.9328 -0.9328 -0.3605 953.7488 290.4284)" width="91.128" height="20.001"/>
<rect x="348.471" y="421.77" width="20" height="92.816"/>
<rect x="185.132" y="462.22" transform="matrix(-0.3604 0.9328 -0.9328 -0.3604 754.3262 427.2382)" width="91.127" height="20.001"/>
<rect x="201.854" y="421.814" width="20" height="92.816"/>
<rect x="261.216" y="59.248" transform="matrix(-0.3604 0.9328 -0.9328 -0.3604 481.9471 -191.9516)" width="91.127" height="19.999"/>
<rect x="273.5" y="16.411" width="20" height="92.816"/>
<polygon points="427.548,419.39 413.375,276.5 539,276.5 "/>
</svg>
