<?xml version="1.0" encoding="utf-8"?>
<!-- Generator: Adobe Illustrator 15.1.0, SVG Export Plug-In . SVG Version: 6.00 Build 0)  -->
<!DOCTYPE svg PUBLIC "-//W3C//DTD SVG 1.1//EN" "http://www.w3.org/Graphics/SVG/1.1/DTD/svg11.dtd">
<svg version="1.1" id="Layer_1" xmlns="http://www.w3.org/2000/svg" xmlns:xlink="http://www.w3.org/1999/xlink" x="0px" y="0px"
	 width="566.93px" height="566.93px" viewBox="0 0 566.93 566.93" enable-background="new 0 0 566.93 566.93" xml:space="preserve">
<path fill="#4E443C" d="M277.448,574.602"/>
<path fill="#4E443C" d="M463.966,567.592H99.7l47.691-468.276h268.882L463.966,567.592z M123.892,545.452h315.882l-43.181-423.997
	h-229.52L123.892,545.452z"/>
<path fill="#4E443C" stroke="#000000" stroke-width="20" stroke-miterlimit="10" d="M225.179,557.983"/>
<path fill="#4E443C" stroke="#000000" stroke-width="20" stroke-miterlimit="10" d="M243.137,457.185"/>
<g>
	<path fill="#4E443C" stroke="#000000" stroke-width="20" stroke-miterlimit="10" d="M356.122,556.523"/>
	<path fill="#4E443C" stroke="#000000" stroke-width="20" stroke-miterlimit="10" d="M338.161,455.726"/>
	<path fill="#4E443C" stroke="#000000" stroke-width="20" stroke-miterlimit="10" d="M365.303,556.523"/>
	<path fill="#4E443C" stroke="#000000" stroke-width="20" stroke-miterlimit="10" d="M383.26,455.726"/>
</g>
<ellipse fill="#4E443C" cx="350.696" cy="243.825" rx="22.357" ry="22.685"/>
<path fill="#4E443C" stroke="#000000" stroke-width="20" stroke-miterlimit="10" d="M291.62,110.252"/>
<path fill="#4E443C" stroke="#000000" stroke-width="20" stroke-miterlimit="10" d="M319.62,109.854"/>
<path fill="#4E443C" stroke="#000000" stroke-width="20" stroke-miterlimit="10" d="M349.573,109.854"/>
<path fill="#4E443C" stroke="#000000" stroke-width="20" stroke-miterlimit="10" d="M381.495,109.711"/>
<polygon fill="#4E443C" points="173.513,458.364 209.355,552.463 189.001,560.445 153.159,466.345 "/>
<rect x="190.903" y="453.575" fill="#4E443C" width="21.82" height="102.747"/>
<polygon fill="#4E443C" points="333.458,458.371 369.289,552.47 348.935,560.448 313.104,466.351 "/>
<rect x="350.865" y="453.624" fill="#4E443C" width="21.82" height="102.747"/>
<polygon fill="#4E443C" points="250.459,12.3 286.291,106.398 265.936,114.377 230.105,20.28 "/>
<path fill="#4E443C" d="M289.769,574.602"/>
<path fill="#4E443C" d="M150.943,99.316h268.882l47.691,468.276H103.25L150.943,99.316z M400.143,121.455H170.625l-43.182,423.997
	h315.88L400.143,121.455z"/>
<path fill="#4E443C" stroke="#000000" stroke-width="20" stroke-miterlimit="10" d="M342.037,557.983"/>
<path fill="#4E443C" stroke="#000000" stroke-width="20" stroke-miterlimit="10" d="M324.078,457.185"/>
<g>
	<path fill="#4E443C" stroke="#000000" stroke-width="20" stroke-miterlimit="10" d="M211.095,556.523"/>
	<path fill="#4E443C" stroke="#000000" stroke-width="20" stroke-miterlimit="10" d="M229.056,455.726"/>
	<path fill="#4E443C" stroke="#000000" stroke-width="20" stroke-miterlimit="10" d="M201.915,556.523"/>
	<path fill="#4E443C" stroke="#000000" stroke-width="20" stroke-miterlimit="10" d="M183.958,455.726"/>
</g>
<ellipse fill="#4E443C" cx="216.52" cy="243.825" rx="22.357" ry="22.685"/>
<path fill="#4E443C" stroke="#000000" stroke-width="20" stroke-miterlimit="10" d="M275.597,110.252"/>
<path fill="#4E443C" stroke="#000000" stroke-width="20" stroke-miterlimit="10" d="M247.597,109.854"/>
<path fill="#4E443C" stroke="#000000" stroke-width="20" stroke-miterlimit="10" d="M217.645,109.854"/>
<path fill="#4E443C" stroke="#000000" stroke-width="20" stroke-miterlimit="10" d="M185.721,109.711"/>
<polygon fill="#4E443C" points="414.026,466.304 378.184,560.403 357.829,552.421 393.671,458.322 "/>
<rect x="354.492" y="453.575" fill="#4E443C" width="21.82" height="102.747"/>
<polygon fill="#4E443C" points="254.091,466.389 218.26,560.487 197.905,552.507 233.737,458.41 "/>
<rect x="194.53" y="453.624" fill="#4E443C" width="21.821" height="102.747"/>
<polygon fill="#4E443C" points="337.111,20.286 301.278,114.383 280.926,106.405 316.756,12.307 "/>
<rect x="272.698" y="4.847" fill="#4E443C" width="21.819" height="102.746"/>
<path fill="#4E443C" d="M283.57,259.846c-4.151,6.476-18.931,20.188-37.674,34.579c-20.473,15.716-38.893,27.037-44.788,27.801v0.09
	h34.67l-0.042-0.031l47.834-36.03V259.846z"/>
<path fill="#4E443C" d="M283.57,259.846c4.153,6.475,18.931,20.188,37.675,34.579c20.474,15.716,38.893,27.037,44.789,27.801v0.09
	h-34.67l0.041-0.031l-47.835-36.028V259.846z"/>
<g>
	<path fill="#4E443C" d="M283.57,384.508c-4.151-6.474-18.931-20.187-37.674-34.578c-20.473-15.716-38.893-27.037-44.788-27.801
		v-0.09h34.67l-0.042,0.031L283.57,358.1V384.508z"/>
	<path fill="#4E443C" d="M283.57,384.508c4.153-6.474,18.931-20.187,37.675-34.578c20.474-15.716,38.893-27.037,44.789-27.801v-0.09
		h-34.67l0.041,0.031L283.57,358.1V384.508z"/>
</g>
<rect x="225.998" y="312.039" fill="#4E443C" width="112.164" height="20"/>
<path fill="#4E443C" d="M493.459,345.595c20.029-24.726,44.189-42.719,68.471-52.831H425.305l15.464,158.177l13.337-17.351
	C457.682,404.698,470.959,373.372,493.459,345.595z"/>
<path fill="#4E443C" d="M73.069,345.596c-20.028-24.726-44.188-42.719-68.47-52.831h136.626l-15.464,158.176l-13.337-17.351
	C108.848,404.698,95.57,373.372,73.069,345.596z"/>
</svg>
