<?xml version="1.0" encoding="utf-8"?>
<!-- Generator: Adobe Illustrator 15.1.0, SVG Export Plug-In . SVG Version: 6.00 Build 0)  -->
<!DOCTYPE svg PUBLIC "-//W3C//DTD SVG 1.1//EN" "http://www.w3.org/Graphics/SVG/1.1/DTD/svg11.dtd">
<svg version="1.1" id="Layer_1" xmlns="http://www.w3.org/2000/svg" xmlns:xlink="http://www.w3.org/1999/xlink" x="0px" y="0px"
	 width="100.603px" height="100.602px" viewBox="0 0 100.603 100.602" enable-background="new 0 0 100.603 100.602"
	 xml:space="preserve">
<rect fill="#6C8DD0" width="100.603" height="100.602"/>
<path fill="#FFFFFF" d="M87.802,35.051v8.566l-11.033,0.047l11.033-26.614h-7.715L68.919,43.522h-21.57L37.13,17.051H4.471l3,8.83
	l22.316,0.003l7.055,17.638h-10.85l4.461,11.15l10.84-0.021l7.902,19.754l-25.224-0.023l5,9.17h31.332l12.832-29.143l14.797,0.121
	l0.02,7.896l8.182-13.006L87.802,35.051z M57.714,71.2c0.131-0.379-6.393-16.699-6.393-16.699h12.967
	C64.289,54.5,57.595,71.581,57.714,71.2z"/>
</svg>
